<svg viewBox="0 0 1024 1024" xmlns="http://www.w3.org/2000/svg" role="img" aria-label="Untype app icon">
  <defs>
    <linearGradient id="tg" x1="0" y1="0" x2="0" y2="1">
      <stop offset="0" stop-color="#fbfdfe"/><stop offset="1" stop-color="#edf1f5"/>
    </linearGradient>
    <linearGradient id="sh" x1="0" y1="0" x2="0" y2="1">
      <stop offset="0" stop-color="rgba(255,255,255,0.80)"/><stop offset="0.42" stop-color="rgba(255,255,255,0)"/>
    </linearGradient>
    <clipPath id="cp"><path d="M284 100 H740 A184 184 0 0 1 924 284 V740 A184 184 0 0 1 740 924 H284 A184 184 0 0 1 100 740 V284 A184 184 0 0 1 284 100 Z"/></clipPath>
  </defs>
  <path d="M284 100 H740 A184 184 0 0 1 924 284 V740 A184 184 0 0 1 740 924 H284 A184 184 0 0 1 100 740 V284 A184 184 0 0 1 284 100 Z" fill="url(#tg)"/>
  <g clip-path="url(#cp)">
    <rect x="0" y="0" width="1024" height="470" fill="url(#sh)"/>
    <path d="M 226 512 C 256 384, 300 384, 330 512 C 360 640, 404 640, 432 512 C 456 424, 494 446, 520 512 C 540 558, 562 530, 582 512 L 742 512" fill="none" stroke="#3b434d" stroke-width="40" stroke-linecap="round" stroke-linejoin="round"/><rect x="752" y="404" width="42" height="216" rx="21" fill="#6a90b7"/>
  </g>
  <path d="M284 100 H740 A184 184 0 0 1 924 284 V740 A184 184 0 0 1 740 924 H284 A184 184 0 0 1 100 740 V284 A184 184 0 0 1 284 100 Z" fill="none" stroke="rgba(159,165,172,0.6)" stroke-width="2.5"/>
</svg>